%TF.GenerationSoftware,KiCad,Pcbnew,10.0.3*%
%TF.CreationDate,2026-09-16T10:01:53+07:00*%
%TF.ProjectId,beacon_v1.0,62656163-6f6e-45f7-9631-2e302e6b6963,rev?*%
%TF.SameCoordinates,Original*%
%TF.FileFunction,Copper,L1,Top*%
%TF.FilePolarity,Positive*%
%FSLAX46Y46*%
G04 Gerber Fmt 4.6, Leading zero omitted, Abs format (unit mm)*
G04 Created by KiCad (PCBNEW 10.0.3) date 2026-09-16 10:01:53*
%MOMM*%
%LPD*%
G01*
G04 APERTURE LIST*
G04 Aperture macros list*
%AMRoundRect*
0 Rectangle with rounded corners*
0 $1 Rounding radius*
0 $2 $3 $4 $5 $6 $7 $8 $9 X,Y pos of 4 corners*
0 Add a 4 corners polygon primitive as box body*
4,1,4,$2,$3,$4,$5,$6,$7,$8,$9,$2,$3,0*
0 Add four circle primitives for the rounded corners*
1,1,$1+$1,$2,$3*
1,1,$1+$1,$4,$5*
1,1,$1+$1,$6,$7*
1,1,$1+$1,$8,$9*
0 Add four rect primitives between the rounded corners*
20,1,$1+$1,$2,$3,$4,$5,0*
20,1,$1+$1,$4,$5,$6,$7,0*
20,1,$1+$1,$6,$7,$8,$9,0*
20,1,$1+$1,$8,$9,$2,$3,0*%
G04 Aperture macros list end*
%TA.AperFunction,ComponentPad*%
%ADD10R,1.700000X1.700000*%
%TD*%
%TA.AperFunction,ComponentPad*%
%ADD11C,1.700000*%
%TD*%
%TA.AperFunction,SMDPad,CuDef*%
%ADD12RoundRect,0.250000X-0.337500X-0.475000X0.337500X-0.475000X0.337500X0.475000X-0.337500X0.475000X0*%
%TD*%
%TA.AperFunction,SMDPad,CuDef*%
%ADD13RoundRect,0.105000X-0.895000X-0.245000X0.895000X-0.245000X0.895000X0.245000X-0.895000X0.245000X0*%
%TD*%
%TA.AperFunction,SMDPad,CuDef*%
%ADD14RoundRect,0.105000X-0.245000X-0.895000X0.245000X-0.895000X0.245000X0.895000X-0.245000X0.895000X0*%
%TD*%
%TA.AperFunction,Conductor*%
%ADD15C,1.000000*%
%TD*%
%TA.AperFunction,Conductor*%
%ADD16C,0.200000*%
%TD*%
%TA.AperFunction,Conductor*%
%ADD17C,0.500000*%
%TD*%
%TA.AperFunction,Conductor*%
%ADD18C,0.250000*%
%TD*%
%TA.AperFunction,Conductor*%
%ADD19C,0.600000*%
%TD*%
G04 APERTURE END LIST*
D10*
%TO.P,J2,1,Pin_1_1*%
%TO.N,/VCC*%
X128250000Y-96620000D03*
D11*
%TO.P,J2,2,Pin_2_2*%
%TO.N,/SWD*%
X128250000Y-94080000D03*
%TO.P,J2,3,Pin_3_3*%
%TO.N,/SWC*%
X128250000Y-91540000D03*
%TO.P,J2,4,Pin_4_4*%
%TO.N,GND*%
X128250000Y-89000000D03*
%TD*%
D10*
%TO.P,J1,1,Pin_1_1*%
%TO.N,/VCC*%
X138000000Y-105500000D03*
D11*
%TO.P,J1,2,Pin_2_2*%
%TO.N,GND*%
X135460000Y-105500000D03*
%TD*%
D12*
%TO.P,C1,1*%
%TO.N,/VCC*%
X142315000Y-100400000D03*
%TO.P,C1,2*%
%TO.N,GND*%
X144390000Y-100400000D03*
%TD*%
%TO.P,C2,1*%
%TO.N,/VCC*%
X142325000Y-102540000D03*
%TO.P,C2,2*%
%TO.N,GND*%
X144400000Y-102540000D03*
%TD*%
D13*
%TO.P,U1,1,GND_1*%
%TO.N,GND*%
X134570000Y-86000000D03*
%TO.P,U1,2,PB02_2*%
%TO.N,unconnected-(U1-PB02-Pad2)*%
X134570000Y-87270000D03*
%TO.P,U1,3,PB01_3*%
%TO.N,unconnected-(U1-PB01-Pad3)*%
X134570000Y-88540000D03*
%TO.P,U1,4,PB00_4*%
%TO.N,unconnected-(U1-PB00-Pad4)*%
X134570000Y-89810000D03*
%TO.P,U1,5,PA00_5*%
%TO.N,unconnected-(U1-PA00-Pad5)*%
X134570000Y-91080000D03*
%TO.P,U1,6,PA01_6*%
%TO.N,/SWC*%
X134570000Y-92350000D03*
%TO.P,U1,7,PA02_7*%
%TO.N,/SWD*%
X134570000Y-93620000D03*
%TO.P,U1,8,PA03_8*%
%TO.N,unconnected-(U1-PA03-Pad8)*%
X134570000Y-94890000D03*
%TO.P,U1,9,GND_9*%
%TO.N,GND*%
X134570000Y-96160000D03*
D14*
%TO.P,U1,10,GND_10*%
X137220000Y-98080000D03*
%TO.P,U1,11,PA04_11*%
%TO.N,unconnected-(U1-PA04-Pad11)*%
X138320000Y-98080000D03*
%TO.P,U1,12,PA05_12*%
%TO.N,unconnected-(U1-PA05-Pad12)*%
X139420000Y-98080000D03*
%TO.P,U1,13,PA06_13*%
%TO.N,unconnected-(U1-PA06-Pad13)*%
X140520000Y-98080000D03*
%TO.P,U1,14,VCC_14*%
%TO.N,/VCC*%
X141620000Y-98080000D03*
%TO.P,U1,15,VCC_15*%
X142720000Y-98080000D03*
%TO.P,U1,16,GND_16*%
%TO.N,GND*%
X143820000Y-98080000D03*
%TO.P,U1,17,GND_17*%
X144920000Y-98080000D03*
D13*
%TO.P,U1,18,PD01_18*%
%TO.N,unconnected-(U1-PD01-Pad18)*%
X147570000Y-96160000D03*
%TO.P,U1,19,PD00_19*%
%TO.N,unconnected-(U1-PD00-Pad19)*%
X147570000Y-94890000D03*
%TO.P,U1,20,PC00_20*%
%TO.N,unconnected-(U1-PC00-Pad20)*%
X147570000Y-93620000D03*
%TO.P,U1,21,PC01_21*%
%TO.N,unconnected-(U1-PC01-Pad21)*%
X147570000Y-92350000D03*
%TO.P,U1,22,PC02_22*%
%TO.N,unconnected-(U1-PC02-Pad22)*%
X147570000Y-91080000D03*
%TO.P,U1,23,PC03_23*%
%TO.N,unconnected-(U1-PC03-Pad23)*%
X147570000Y-89810000D03*
%TO.P,U1,24,PC04_24*%
%TO.N,unconnected-(U1-PC04-Pad24)*%
X147570000Y-88540000D03*
%TO.P,U1,25,PC05_25*%
%TO.N,unconnected-(U1-PC05-Pad25)*%
X147570000Y-87270000D03*
%TO.P,U1,26,RST_26*%
%TO.N,unconnected-(U1-RST-Pad26)*%
X147570000Y-86000000D03*
%TD*%
%TO.N,/VCC*%
D15*
X128250000Y-99500000D02*
X130000000Y-101250000D01*
D16*
X142315000Y-100685000D02*
X142325000Y-100695000D01*
D15*
X141000000Y-105500000D02*
X142325000Y-104175000D01*
D17*
X141620000Y-99705000D02*
X142315000Y-100400000D01*
D15*
X142325000Y-104175000D02*
X142325000Y-102540000D01*
X138000000Y-102000000D02*
X138000000Y-105500000D01*
X142325000Y-100695000D02*
X142325000Y-102540000D01*
X137250000Y-101250000D02*
X138000000Y-102000000D01*
D17*
X142720000Y-99995000D02*
X142315000Y-100400000D01*
X141620000Y-98080000D02*
X141620000Y-99705000D01*
D15*
X128250000Y-96620000D02*
X128250000Y-99500000D01*
D16*
X142315000Y-100400000D02*
X142315000Y-100685000D01*
D17*
X142720000Y-98080000D02*
X142720000Y-99995000D01*
D15*
X130000000Y-101250000D02*
X137250000Y-101250000D01*
X138000000Y-105500000D02*
X141000000Y-105500000D01*
%TO.N,/SWD*%
D18*
X131630000Y-93620000D02*
X134570000Y-93620000D01*
X128250000Y-94080000D02*
X131170000Y-94080000D01*
X131170000Y-94080000D02*
X131630000Y-93620000D01*
%TO.N,/SWC*%
X130790000Y-91540000D02*
X131600000Y-92350000D01*
X131600000Y-92350000D02*
X134570000Y-92350000D01*
X128250000Y-91540000D02*
X130790000Y-91540000D01*
%TO.N,GND*%
D19*
X134570000Y-97820000D02*
X134830000Y-98080000D01*
X131250000Y-86000000D02*
X128250000Y-89000000D01*
X134570000Y-96160000D02*
X134570000Y-97820000D01*
X134570000Y-86000000D02*
X131250000Y-86000000D01*
D16*
X137220000Y-97450000D02*
X137220000Y-98080000D01*
D19*
X134830000Y-98080000D02*
X137220000Y-98080000D01*
%TD*%
%TA.AperFunction,Conductor*%
%TO.N,GND*%
G36*
X132443039Y-77270185D02*
G01*
X132488794Y-77322989D01*
X132500000Y-77374500D01*
X132500000Y-91600500D01*
X132480315Y-91667539D01*
X132427511Y-91713294D01*
X132376000Y-91724500D01*
X131910452Y-91724500D01*
X131843413Y-91704815D01*
X131822771Y-91688181D01*
X131283150Y-91148560D01*
X131275860Y-91141270D01*
X131275858Y-91141267D01*
X131188733Y-91054142D01*
X131137509Y-91019915D01*
X131086286Y-90985688D01*
X131086283Y-90985686D01*
X131086280Y-90985685D01*
X131012603Y-90955168D01*
X131012601Y-90955167D01*
X131005792Y-90952347D01*
X130972452Y-90938537D01*
X130912029Y-90926518D01*
X130907306Y-90925578D01*
X130907304Y-90925578D01*
X130851610Y-90914500D01*
X130851607Y-90914500D01*
X130851606Y-90914500D01*
X129522981Y-90914500D01*
X129455942Y-90894815D01*
X129412497Y-90846797D01*
X129405049Y-90832180D01*
X129280109Y-90660213D01*
X129129786Y-90509890D01*
X128957817Y-90384949D01*
X128948504Y-90380204D01*
X128897707Y-90332230D01*
X128880912Y-90264409D01*
X128903449Y-90198274D01*
X128948507Y-90159232D01*
X128957555Y-90154622D01*
X129011716Y-90115270D01*
X129011717Y-90115270D01*
X128379408Y-89482962D01*
X128442993Y-89465925D01*
X128557007Y-89400099D01*
X128650099Y-89307007D01*
X128715925Y-89192993D01*
X128732962Y-89129408D01*
X129365270Y-89761717D01*
X129365270Y-89761716D01*
X129404622Y-89707554D01*
X129501095Y-89518217D01*
X129566757Y-89316130D01*
X129566757Y-89316127D01*
X129600000Y-89106246D01*
X129600000Y-88893753D01*
X129566757Y-88683872D01*
X129566757Y-88683869D01*
X129501095Y-88481782D01*
X129404624Y-88292449D01*
X129365270Y-88238282D01*
X129365269Y-88238282D01*
X128732962Y-88870590D01*
X128715925Y-88807007D01*
X128650099Y-88692993D01*
X128557007Y-88599901D01*
X128442993Y-88534075D01*
X128379409Y-88517037D01*
X129011716Y-87884728D01*
X128957550Y-87845375D01*
X128768217Y-87748904D01*
X128566129Y-87683242D01*
X128356246Y-87650000D01*
X128143754Y-87650000D01*
X127933872Y-87683242D01*
X127933869Y-87683242D01*
X127731782Y-87748904D01*
X127542439Y-87845380D01*
X127488282Y-87884727D01*
X127488282Y-87884728D01*
X128120591Y-88517037D01*
X128057007Y-88534075D01*
X127942993Y-88599901D01*
X127849901Y-88692993D01*
X127784075Y-88807007D01*
X127767037Y-88870591D01*
X127134728Y-88238282D01*
X127134727Y-88238282D01*
X127095380Y-88292439D01*
X126998904Y-88481782D01*
X126933242Y-88683869D01*
X126933242Y-88683872D01*
X126900000Y-88893753D01*
X126900000Y-89106246D01*
X126933242Y-89316127D01*
X126933242Y-89316130D01*
X126998904Y-89518217D01*
X127095375Y-89707550D01*
X127134728Y-89761716D01*
X127767037Y-89129408D01*
X127784075Y-89192993D01*
X127849901Y-89307007D01*
X127942993Y-89400099D01*
X128057007Y-89465925D01*
X128120590Y-89482962D01*
X127488282Y-90115269D01*
X127488282Y-90115270D01*
X127542452Y-90154626D01*
X127542451Y-90154626D01*
X127551495Y-90159234D01*
X127602292Y-90207208D01*
X127619087Y-90275029D01*
X127596550Y-90341164D01*
X127551499Y-90380202D01*
X127542182Y-90384949D01*
X127370213Y-90509890D01*
X127219890Y-90660213D01*
X127094951Y-90832179D01*
X126998444Y-91021585D01*
X126932753Y-91223760D01*
X126899500Y-91433713D01*
X126899500Y-91646286D01*
X126916536Y-91753851D01*
X126932754Y-91856243D01*
X126953941Y-91921451D01*
X126998444Y-92058414D01*
X127094951Y-92247820D01*
X127219890Y-92419786D01*
X127370213Y-92570109D01*
X127542182Y-92695050D01*
X127550946Y-92699516D01*
X127601742Y-92747491D01*
X127618536Y-92815312D01*
X127595998Y-92881447D01*
X127550946Y-92920484D01*
X127542182Y-92924949D01*
X127370213Y-93049890D01*
X127219890Y-93200213D01*
X127094951Y-93372179D01*
X126998444Y-93561585D01*
X126932753Y-93763760D01*
X126910431Y-93904695D01*
X126899500Y-93973713D01*
X126899500Y-94186287D01*
X126932754Y-94396243D01*
X126987865Y-94565857D01*
X126998444Y-94598414D01*
X127094951Y-94787820D01*
X127219890Y-94959786D01*
X127333430Y-95073326D01*
X127366915Y-95134649D01*
X127361931Y-95204341D01*
X127320059Y-95260274D01*
X127289083Y-95277189D01*
X127157669Y-95326203D01*
X127157664Y-95326206D01*
X127042455Y-95412452D01*
X127042452Y-95412455D01*
X126956206Y-95527664D01*
X126956202Y-95527671D01*
X126905908Y-95662517D01*
X126899501Y-95722116D01*
X126899501Y-95722123D01*
X126899500Y-95722135D01*
X126899500Y-97517870D01*
X126899501Y-97517876D01*
X126905908Y-97577483D01*
X126956202Y-97712328D01*
X126956206Y-97712335D01*
X127042452Y-97827544D01*
X127042455Y-97827547D01*
X127157665Y-97913794D01*
X127157667Y-97913794D01*
X127157669Y-97913796D01*
X127168830Y-97917958D01*
X127224764Y-97959826D01*
X127249184Y-98025289D01*
X127249500Y-98034141D01*
X127249500Y-99598544D01*
X127285378Y-99778915D01*
X127287948Y-99791834D01*
X127287949Y-99791838D01*
X127363364Y-99973907D01*
X127363371Y-99973920D01*
X127472859Y-100137780D01*
X127472860Y-100137781D01*
X127472861Y-100137782D01*
X127612218Y-100277139D01*
X127612219Y-100277139D01*
X127619286Y-100284206D01*
X127619285Y-100284206D01*
X127619288Y-100284208D01*
X129222860Y-101887781D01*
X129222861Y-101887782D01*
X129350062Y-102014983D01*
X129362219Y-102027140D01*
X129526079Y-102136628D01*
X129526092Y-102136635D01*
X129654833Y-102189961D01*
X129697744Y-102207735D01*
X129708164Y-102212051D01*
X129804812Y-102231275D01*
X129853135Y-102240887D01*
X129901458Y-102250500D01*
X129901459Y-102250500D01*
X129901460Y-102250500D01*
X130098540Y-102250500D01*
X136784218Y-102250500D01*
X136813658Y-102259144D01*
X136843645Y-102265668D01*
X136848660Y-102269422D01*
X136851257Y-102270185D01*
X136871899Y-102286819D01*
X136963181Y-102378101D01*
X136996666Y-102439424D01*
X136999500Y-102465782D01*
X136999500Y-104085858D01*
X136979815Y-104152897D01*
X136927011Y-104198652D01*
X136918847Y-104202034D01*
X136907669Y-104206204D01*
X136907664Y-104206206D01*
X136792455Y-104292452D01*
X136792452Y-104292455D01*
X136706206Y-104407664D01*
X136706202Y-104407671D01*
X136655908Y-104542517D01*
X136649501Y-104602116D01*
X136649500Y-104602135D01*
X136649500Y-104612690D01*
X136629815Y-104679729D01*
X136613181Y-104700371D01*
X135942962Y-105370590D01*
X135925925Y-105307007D01*
X135860099Y-105192993D01*
X135767007Y-105099901D01*
X135652993Y-105034075D01*
X135589409Y-105017037D01*
X136221716Y-104384728D01*
X136167550Y-104345375D01*
X135978217Y-104248904D01*
X135776129Y-104183242D01*
X135566246Y-104150000D01*
X135353754Y-104150000D01*
X135143872Y-104183242D01*
X135143869Y-104183242D01*
X134941782Y-104248904D01*
X134752439Y-104345380D01*
X134698282Y-104384727D01*
X134698282Y-104384728D01*
X135330591Y-105017037D01*
X135267007Y-105034075D01*
X135152993Y-105099901D01*
X135059901Y-105192993D01*
X134994075Y-105307007D01*
X134977037Y-105370591D01*
X134344728Y-104738282D01*
X134344727Y-104738282D01*
X134305380Y-104792439D01*
X134208904Y-104981782D01*
X134143242Y-105183869D01*
X134143242Y-105183872D01*
X134110000Y-105393753D01*
X134110000Y-105606246D01*
X134143242Y-105816127D01*
X134143242Y-105816130D01*
X134208904Y-106018217D01*
X134305375Y-106207550D01*
X134344728Y-106261716D01*
X134977037Y-105629408D01*
X134994075Y-105692993D01*
X135059901Y-105807007D01*
X135152993Y-105900099D01*
X135267007Y-105965925D01*
X135330590Y-105982962D01*
X134698282Y-106615269D01*
X134698282Y-106615270D01*
X134752449Y-106654624D01*
X134941782Y-106751095D01*
X135143870Y-106816757D01*
X135353754Y-106850000D01*
X135566246Y-106850000D01*
X135776127Y-106816757D01*
X135776130Y-106816757D01*
X135978217Y-106751095D01*
X136167554Y-106654622D01*
X136221716Y-106615270D01*
X136221717Y-106615270D01*
X135589408Y-105982962D01*
X135652993Y-105965925D01*
X135767007Y-105900099D01*
X135860099Y-105807007D01*
X135925925Y-105692993D01*
X135942962Y-105629409D01*
X136613181Y-106299628D01*
X136646666Y-106360951D01*
X136649500Y-106387300D01*
X136649500Y-106397865D01*
X136649501Y-106397876D01*
X136655908Y-106457483D01*
X136706202Y-106592328D01*
X136706206Y-106592335D01*
X136792452Y-106707544D01*
X136792455Y-106707547D01*
X136907664Y-106793793D01*
X136907671Y-106793797D01*
X137042517Y-106844091D01*
X137042516Y-106844091D01*
X137049444Y-106844835D01*
X137102127Y-106850500D01*
X138897872Y-106850499D01*
X138957483Y-106844091D01*
X139092331Y-106793796D01*
X139207546Y-106707546D01*
X139293796Y-106592331D01*
X139297960Y-106581165D01*
X139339829Y-106525234D01*
X139405293Y-106500816D01*
X139414141Y-106500500D01*
X141098542Y-106500500D01*
X141129566Y-106494328D01*
X141195188Y-106481275D01*
X141291836Y-106462051D01*
X141345165Y-106439961D01*
X141473914Y-106386632D01*
X141637782Y-106277139D01*
X141777139Y-106137782D01*
X141777140Y-106137779D01*
X141784206Y-106130714D01*
X141784209Y-106130710D01*
X142962778Y-104952141D01*
X142962782Y-104952139D01*
X143102139Y-104812782D01*
X143211632Y-104648914D01*
X143287051Y-104466835D01*
X143303383Y-104384728D01*
X143325500Y-104273543D01*
X143325500Y-103638023D01*
X143345185Y-103570984D01*
X143397989Y-103525229D01*
X143467147Y-103515285D01*
X143530703Y-103544310D01*
X143537181Y-103550342D01*
X143594154Y-103607315D01*
X143743375Y-103699356D01*
X143743380Y-103699358D01*
X143909802Y-103754505D01*
X143909809Y-103754506D01*
X144012519Y-103764999D01*
X144149999Y-103764999D01*
X144650000Y-103764999D01*
X144787472Y-103764999D01*
X144787486Y-103764998D01*
X144890197Y-103754505D01*
X145056619Y-103699358D01*
X145056624Y-103699356D01*
X145205845Y-103607315D01*
X145329815Y-103483345D01*
X145421856Y-103334124D01*
X145421858Y-103334119D01*
X145477005Y-103167697D01*
X145477006Y-103167690D01*
X145487499Y-103064986D01*
X145487500Y-103064973D01*
X145487500Y-102790000D01*
X144650000Y-102790000D01*
X144650000Y-103764999D01*
X144149999Y-103764999D01*
X144150000Y-103764998D01*
X144150000Y-101733119D01*
X144142834Y-101719996D01*
X144140000Y-101693638D01*
X144140000Y-101206880D01*
X144640000Y-101206880D01*
X144647166Y-101220004D01*
X144650000Y-101246362D01*
X144650000Y-102290000D01*
X145487499Y-102290000D01*
X145487499Y-102015028D01*
X145487498Y-102015013D01*
X145477005Y-101912302D01*
X145421858Y-101745880D01*
X145421856Y-101745875D01*
X145329815Y-101596654D01*
X145285842Y-101552681D01*
X145252357Y-101491358D01*
X145257341Y-101421666D01*
X145285843Y-101377318D01*
X145319814Y-101343347D01*
X145411856Y-101194124D01*
X145411858Y-101194119D01*
X145467005Y-101027697D01*
X145467006Y-101027690D01*
X145477499Y-100924986D01*
X145477500Y-100924973D01*
X145477500Y-100650000D01*
X144640000Y-100650000D01*
X144640000Y-101206880D01*
X144140000Y-101206880D01*
X144140000Y-100524000D01*
X144159685Y-100456961D01*
X144212489Y-100411206D01*
X144264000Y-100400000D01*
X144390000Y-100400000D01*
X144390000Y-100274000D01*
X144409685Y-100206961D01*
X144462489Y-100161206D01*
X144514000Y-100150000D01*
X145477499Y-100150000D01*
X145477499Y-99875028D01*
X145477498Y-99875013D01*
X145467005Y-99772302D01*
X145424346Y-99643566D01*
X145421944Y-99573738D01*
X145457676Y-99513696D01*
X145466566Y-99506186D01*
X145596489Y-99406492D01*
X145693468Y-99280108D01*
X145754426Y-99132940D01*
X145754427Y-99132936D01*
X145769999Y-99014664D01*
X145770000Y-99014650D01*
X145770000Y-98330000D01*
X143944000Y-98330000D01*
X143876961Y-98310315D01*
X143831206Y-98257511D01*
X143820000Y-98206000D01*
X143820000Y-98080000D01*
X143694500Y-98080000D01*
X143627461Y-98060315D01*
X143581706Y-98007511D01*
X143570500Y-97956000D01*
X143570500Y-97830000D01*
X144070000Y-97830000D01*
X144670000Y-97830000D01*
X145170000Y-97830000D01*
X145769999Y-97830000D01*
X145769999Y-97145341D01*
X145754429Y-97027071D01*
X145754426Y-97027059D01*
X145693468Y-96879891D01*
X145596490Y-96753509D01*
X145470108Y-96656531D01*
X145322940Y-96595573D01*
X145322936Y-96595572D01*
X145204664Y-96580000D01*
X145170000Y-96580000D01*
X145170000Y-97830000D01*
X144670000Y-97830000D01*
X144670000Y-96580000D01*
X144635341Y-96580000D01*
X144517071Y-96595570D01*
X144517059Y-96595573D01*
X144417452Y-96636831D01*
X144347982Y-96644300D01*
X144322548Y-96636831D01*
X144222940Y-96595573D01*
X144222936Y-96595572D01*
X144104664Y-96580000D01*
X144070000Y-96580000D01*
X144070000Y-97830000D01*
X143570500Y-97830000D01*
X143570500Y-97145318D01*
X143570265Y-97141733D01*
X143570000Y-97133624D01*
X143570000Y-96580000D01*
X143535341Y-96580000D01*
X143417065Y-96595570D01*
X143417060Y-96595572D01*
X143318103Y-96636561D01*
X143248634Y-96644030D01*
X143223201Y-96636561D01*
X143123067Y-96595085D01*
X143108269Y-96593136D01*
X143004695Y-96579500D01*
X143004688Y-96579500D01*
X142435312Y-96579500D01*
X142435304Y-96579500D01*
X142316935Y-96595084D01*
X142217452Y-96636291D01*
X142147982Y-96643759D01*
X142122548Y-96636291D01*
X142024245Y-96595573D01*
X142023067Y-96595085D01*
X142023066Y-96595084D01*
X142023064Y-96595084D01*
X141904695Y-96579500D01*
X141904688Y-96579500D01*
X141335312Y-96579500D01*
X141335304Y-96579500D01*
X141216935Y-96595084D01*
X141117452Y-96636291D01*
X141047982Y-96643759D01*
X141022548Y-96636291D01*
X140924245Y-96595573D01*
X140923067Y-96595085D01*
X140923066Y-96595084D01*
X140923064Y-96595084D01*
X140804695Y-96579500D01*
X140804688Y-96579500D01*
X140235312Y-96579500D01*
X140235304Y-96579500D01*
X140116935Y-96595084D01*
X140017452Y-96636291D01*
X139947982Y-96643759D01*
X139922548Y-96636291D01*
X139824245Y-96595573D01*
X139823067Y-96595085D01*
X139823066Y-96595084D01*
X139823064Y-96595084D01*
X139704695Y-96579500D01*
X139704688Y-96579500D01*
X139135312Y-96579500D01*
X139135304Y-96579500D01*
X139016935Y-96595084D01*
X138917452Y-96636291D01*
X138847982Y-96643759D01*
X138822548Y-96636291D01*
X138724245Y-96595573D01*
X138723067Y-96595085D01*
X138723066Y-96595084D01*
X138723064Y-96595084D01*
X138604695Y-96579500D01*
X138604688Y-96579500D01*
X138035312Y-96579500D01*
X138035304Y-96579500D01*
X137916933Y-96595085D01*
X137916929Y-96595086D01*
X137816799Y-96636561D01*
X137747330Y-96644030D01*
X137721895Y-96636561D01*
X137622940Y-96595573D01*
X137622936Y-96595572D01*
X137504664Y-96580000D01*
X137470000Y-96580000D01*
X137470000Y-97133624D01*
X137469735Y-97141733D01*
X137469500Y-97145318D01*
X137469500Y-99014682D01*
X137469735Y-99018268D01*
X137470000Y-99026377D01*
X137470000Y-99579999D01*
X137504657Y-99579999D01*
X137622936Y-99564427D01*
X137721894Y-99523438D01*
X137791363Y-99515969D01*
X137816795Y-99523436D01*
X137916933Y-99564915D01*
X138029321Y-99579711D01*
X138031506Y-99579999D01*
X138035312Y-99580500D01*
X138035319Y-99580500D01*
X138604681Y-99580500D01*
X138604688Y-99580500D01*
X138723067Y-99564915D01*
X138822549Y-99523707D01*
X138892016Y-99516239D01*
X138917446Y-99523706D01*
X139016933Y-99564915D01*
X139129321Y-99579711D01*
X139131506Y-99579999D01*
X139135312Y-99580500D01*
X139135319Y-99580500D01*
X139704681Y-99580500D01*
X139704688Y-99580500D01*
X139823067Y-99564915D01*
X139922549Y-99523707D01*
X139992016Y-99516239D01*
X140017446Y-99523706D01*
X140116933Y-99564915D01*
X140229321Y-99579711D01*
X140231506Y-99579999D01*
X140235312Y-99580500D01*
X140235319Y-99580500D01*
X140745500Y-99580500D01*
X140812539Y-99600185D01*
X140858294Y-99652989D01*
X140869500Y-99704500D01*
X140869500Y-99778920D01*
X140898340Y-99923907D01*
X140898343Y-99923917D01*
X140954912Y-100060488D01*
X140954916Y-100060495D01*
X140970953Y-100084496D01*
X140970954Y-100084499D01*
X141037046Y-100183414D01*
X141037047Y-100183415D01*
X141037048Y-100183416D01*
X141190682Y-100337050D01*
X141224166Y-100398372D01*
X141227000Y-100424730D01*
X141227000Y-100925001D01*
X141227001Y-100925019D01*
X141237500Y-101027796D01*
X141237501Y-101027799D01*
X141292615Y-101194119D01*
X141292686Y-101194334D01*
X141300424Y-101206880D01*
X141306039Y-101215982D01*
X141324500Y-101281079D01*
X141324500Y-101675134D01*
X141306041Y-101740225D01*
X141303688Y-101744039D01*
X141302685Y-101745667D01*
X141265787Y-101857019D01*
X141247501Y-101912203D01*
X141247501Y-101912204D01*
X141247500Y-101912204D01*
X141237000Y-102014983D01*
X141237000Y-103065001D01*
X141237001Y-103065019D01*
X141247500Y-103167796D01*
X141247501Y-103167799D01*
X141302685Y-103334331D01*
X141302688Y-103334338D01*
X141306038Y-103339768D01*
X141324500Y-103404866D01*
X141324500Y-103709218D01*
X141304815Y-103776257D01*
X141288181Y-103796899D01*
X140621899Y-104463181D01*
X140560576Y-104496666D01*
X140534218Y-104499500D01*
X139414141Y-104499500D01*
X139347102Y-104479815D01*
X139301347Y-104427011D01*
X139297969Y-104418859D01*
X139293796Y-104407669D01*
X139293793Y-104407665D01*
X139293793Y-104407664D01*
X139207547Y-104292455D01*
X139207544Y-104292452D01*
X139092335Y-104206206D01*
X139092332Y-104206205D01*
X139092331Y-104206204D01*
X139081161Y-104202038D01*
X139025231Y-104160166D01*
X139000816Y-104094701D01*
X139000500Y-104085858D01*
X139000500Y-101901456D01*
X138987539Y-101836301D01*
X138972931Y-101762861D01*
X138962051Y-101708164D01*
X138927810Y-101625499D01*
X138897648Y-101552681D01*
X138886635Y-101526092D01*
X138886628Y-101526079D01*
X138777139Y-101362218D01*
X138777136Y-101362214D01*
X138634686Y-101219764D01*
X138634655Y-101219735D01*
X138031479Y-100616559D01*
X138031459Y-100616537D01*
X137887785Y-100472863D01*
X137887781Y-100472860D01*
X137723920Y-100363371D01*
X137723911Y-100363366D01*
X137651315Y-100333296D01*
X137595165Y-100310038D01*
X137541836Y-100287949D01*
X137541832Y-100287948D01*
X137541828Y-100287946D01*
X137445188Y-100268724D01*
X137348544Y-100249500D01*
X137348541Y-100249500D01*
X130465783Y-100249500D01*
X130398744Y-100229815D01*
X130378102Y-100213181D01*
X129286819Y-99121898D01*
X129253334Y-99060575D01*
X129250500Y-99034217D01*
X129250500Y-99014658D01*
X136370001Y-99014658D01*
X136385570Y-99132928D01*
X136385573Y-99132940D01*
X136446531Y-99280108D01*
X136543509Y-99406490D01*
X136669891Y-99503468D01*
X136817059Y-99564426D01*
X136817063Y-99564427D01*
X136935342Y-99579999D01*
X136970000Y-99579999D01*
X136970000Y-98330000D01*
X136370001Y-98330000D01*
X136370001Y-99014658D01*
X129250500Y-99014658D01*
X129250500Y-98034141D01*
X129270185Y-97967102D01*
X129322989Y-97921347D01*
X129331149Y-97917966D01*
X129342331Y-97913796D01*
X129457546Y-97827546D01*
X129543796Y-97712331D01*
X129594091Y-97577483D01*
X129600500Y-97517873D01*
X129600500Y-97145335D01*
X136370000Y-97145335D01*
X136370000Y-97830000D01*
X136970000Y-97830000D01*
X136970000Y-96580000D01*
X136935341Y-96580000D01*
X136817071Y-96595570D01*
X136817059Y-96595573D01*
X136669891Y-96656531D01*
X136543509Y-96753509D01*
X136446531Y-96879891D01*
X136385573Y-97027059D01*
X136385572Y-97027063D01*
X136370000Y-97145335D01*
X129600500Y-97145335D01*
X129600499Y-96444658D01*
X133070001Y-96444658D01*
X133085570Y-96562928D01*
X133085573Y-96562940D01*
X133146531Y-96710108D01*
X133243509Y-96836490D01*
X133369891Y-96933468D01*
X133517059Y-96994426D01*
X133517063Y-96994427D01*
X133635342Y-97009999D01*
X134319999Y-97009999D01*
X134820000Y-97009999D01*
X135504658Y-97009999D01*
X135622928Y-96994429D01*
X135622940Y-96994426D01*
X135770108Y-96933468D01*
X135896490Y-96836490D01*
X135993468Y-96710108D01*
X136054426Y-96562940D01*
X136054427Y-96562936D01*
X136069999Y-96444664D01*
X136070000Y-96444650D01*
X136070000Y-96410000D01*
X134820000Y-96410000D01*
X134820000Y-97009999D01*
X134319999Y-97009999D01*
X134320000Y-97009998D01*
X134320000Y-96410000D01*
X133070001Y-96410000D01*
X133070001Y-96444658D01*
X129600499Y-96444658D01*
X129600499Y-95722128D01*
X129594091Y-95662517D01*
X129574462Y-95609890D01*
X129543797Y-95527671D01*
X129543793Y-95527664D01*
X129457547Y-95412455D01*
X129457544Y-95412452D01*
X129342335Y-95326206D01*
X129342328Y-95326202D01*
X129210917Y-95277189D01*
X129154983Y-95235318D01*
X129130566Y-95169853D01*
X129145418Y-95101580D01*
X129166563Y-95073332D01*
X129280104Y-94959792D01*
X129405051Y-94787816D01*
X129412497Y-94773203D01*
X129460473Y-94722408D01*
X129522981Y-94705500D01*
X131231607Y-94705500D01*
X131292029Y-94693481D01*
X131352452Y-94681463D01*
X131385792Y-94667652D01*
X131466286Y-94634312D01*
X131517509Y-94600084D01*
X131520009Y-94598414D01*
X131530271Y-94591556D01*
X131568733Y-94565858D01*
X131655858Y-94478733D01*
X131655860Y-94478729D01*
X131852772Y-94281816D01*
X131914095Y-94248334D01*
X131940452Y-94245500D01*
X132999511Y-94245500D01*
X133066550Y-94265185D01*
X133112305Y-94317989D01*
X133122249Y-94387147D01*
X133114072Y-94416953D01*
X133085085Y-94486932D01*
X133085085Y-94486933D01*
X133069500Y-94605304D01*
X133069500Y-95174695D01*
X133085085Y-95293066D01*
X133085086Y-95293070D01*
X133146094Y-95440358D01*
X133146096Y-95440362D01*
X133153434Y-95449925D01*
X133178627Y-95515095D01*
X133164588Y-95583539D01*
X133153434Y-95600895D01*
X133146532Y-95609889D01*
X133085573Y-95757059D01*
X133085572Y-95757063D01*
X133070000Y-95875335D01*
X133070000Y-95910000D01*
X136069999Y-95910000D01*
X136069999Y-95875341D01*
X136054429Y-95757071D01*
X136054426Y-95757059D01*
X135993468Y-95609890D01*
X135993466Y-95609887D01*
X135986568Y-95600898D01*
X135961372Y-95535730D01*
X135975409Y-95467285D01*
X135986563Y-95449928D01*
X135993903Y-95440363D01*
X136054915Y-95293067D01*
X136070500Y-95174688D01*
X136070500Y-94605312D01*
X136054915Y-94486933D01*
X135993903Y-94339637D01*
X135993902Y-94339635D01*
X135986882Y-94330487D01*
X135961687Y-94265318D01*
X135975725Y-94196873D01*
X135986882Y-94179513D01*
X135989304Y-94176356D01*
X135993903Y-94170363D01*
X136054915Y-94023067D01*
X136070500Y-93904688D01*
X136070500Y-93335312D01*
X136054915Y-93216933D01*
X135993903Y-93069637D01*
X135993902Y-93069635D01*
X135986882Y-93060487D01*
X135961687Y-92995318D01*
X135975725Y-92926873D01*
X135986882Y-92909513D01*
X135990873Y-92904312D01*
X135993903Y-92900363D01*
X136054915Y-92753067D01*
X136070500Y-92634688D01*
X136070500Y-92065312D01*
X136054915Y-91946933D01*
X136044359Y-91921450D01*
X136036892Y-91851982D01*
X136068168Y-91789503D01*
X136128258Y-91753851D01*
X136158922Y-91750000D01*
X145981078Y-91750000D01*
X146048117Y-91769685D01*
X146093872Y-91822489D01*
X146103816Y-91891647D01*
X146095640Y-91921451D01*
X146085085Y-91946933D01*
X146069500Y-92065304D01*
X146069500Y-92634695D01*
X146083136Y-92738269D01*
X146085085Y-92753067D01*
X146133555Y-92870085D01*
X146146098Y-92900365D01*
X146146098Y-92900366D01*
X146153119Y-92909516D01*
X146178312Y-92974685D01*
X146164272Y-93043130D01*
X146153119Y-93060484D01*
X146146098Y-93069633D01*
X146146098Y-93069634D01*
X146085085Y-93216932D01*
X146085085Y-93216933D01*
X146069500Y-93335304D01*
X146069500Y-93904695D01*
X146085085Y-94023066D01*
X146085085Y-94023067D01*
X146146098Y-94170365D01*
X146146098Y-94170366D01*
X146153119Y-94179516D01*
X146178312Y-94244685D01*
X146164272Y-94313130D01*
X146153119Y-94330484D01*
X146146098Y-94339633D01*
X146146098Y-94339634D01*
X146085085Y-94486932D01*
X146085085Y-94486933D01*
X146069500Y-94605304D01*
X146069500Y-95174695D01*
X146085085Y-95293066D01*
X146085085Y-95293067D01*
X146146098Y-95440365D01*
X146146098Y-95440366D01*
X146153119Y-95449516D01*
X146178312Y-95514685D01*
X146164272Y-95583130D01*
X146153119Y-95600484D01*
X146146098Y-95609633D01*
X146146098Y-95609634D01*
X146085085Y-95756932D01*
X146085085Y-95756933D01*
X146069500Y-95875304D01*
X146069500Y-96444695D01*
X146083136Y-96548269D01*
X146085085Y-96563067D01*
X146146097Y-96710363D01*
X146243152Y-96836848D01*
X146369637Y-96933903D01*
X146516933Y-96994915D01*
X146629321Y-97009711D01*
X146631506Y-97009999D01*
X146635312Y-97010500D01*
X146635319Y-97010500D01*
X148504681Y-97010500D01*
X148504688Y-97010500D01*
X148623067Y-96994915D01*
X148770363Y-96933903D01*
X148896848Y-96836848D01*
X148993903Y-96710363D01*
X149054915Y-96563067D01*
X149070500Y-96444688D01*
X149070500Y-95875312D01*
X149054915Y-95756933D01*
X148994008Y-95609890D01*
X148993905Y-95609641D01*
X148993902Y-95609635D01*
X148986882Y-95600487D01*
X148961687Y-95535318D01*
X148975725Y-95466873D01*
X148986882Y-95449513D01*
X148989304Y-95446356D01*
X148993903Y-95440363D01*
X149054915Y-95293067D01*
X149070500Y-95174688D01*
X149070500Y-94605312D01*
X149054915Y-94486933D01*
X148993903Y-94339637D01*
X148993902Y-94339635D01*
X148986882Y-94330487D01*
X148961687Y-94265318D01*
X148975725Y-94196873D01*
X148986882Y-94179513D01*
X148989304Y-94176356D01*
X148993903Y-94170363D01*
X149054915Y-94023067D01*
X149070500Y-93904688D01*
X149070500Y-93335312D01*
X149054915Y-93216933D01*
X148993903Y-93069637D01*
X148993902Y-93069635D01*
X148986882Y-93060487D01*
X148961687Y-92995318D01*
X148975725Y-92926873D01*
X148986882Y-92909513D01*
X148990873Y-92904312D01*
X148993903Y-92900363D01*
X149054915Y-92753067D01*
X149070500Y-92634688D01*
X149070500Y-92065312D01*
X149054915Y-91946933D01*
X149044359Y-91921450D01*
X149036892Y-91851982D01*
X149068168Y-91789503D01*
X149128258Y-91753851D01*
X149158922Y-91750000D01*
X149500000Y-91750000D01*
X149500000Y-77374500D01*
X149519685Y-77307461D01*
X149572489Y-77261706D01*
X149624000Y-77250500D01*
X155875500Y-77250500D01*
X155942539Y-77270185D01*
X155988294Y-77322989D01*
X155999500Y-77374500D01*
X155999500Y-111125500D01*
X155979815Y-111192539D01*
X155927011Y-111238294D01*
X155875500Y-111249500D01*
X122124500Y-111249500D01*
X122057461Y-111229815D01*
X122011706Y-111177011D01*
X122000500Y-111125500D01*
X122000500Y-77374500D01*
X122020185Y-77307461D01*
X122072989Y-77261706D01*
X122124500Y-77250500D01*
X132376000Y-77250500D01*
X132443039Y-77270185D01*
G37*
%TD.AperFunction*%
%TD*%
M02*
