%TF.GenerationSoftware,KiCad,Pcbnew,10.0.3*%
%TF.CreationDate,2026-09-16T10:01:53+07:00*%
%TF.ProjectId,beacon_v1.0,62656163-6f6e-45f7-9631-2e302e6b6963,rev?*%
%TF.SameCoordinates,Original*%
%TF.FileFunction,Legend,Top*%
%TF.FilePolarity,Positive*%
%FSLAX46Y46*%
G04 Gerber Fmt 4.6, Leading zero omitted, Abs format (unit mm)*
G04 Created by KiCad (PCBNEW 10.0.3) date 2026-09-16 10:01:53*
%MOMM*%
%LPD*%
G01*
G04 APERTURE LIST*
%ADD10C,0.150000*%
%ADD11C,0.100000*%
%ADD12C,0.120000*%
G04 APERTURE END LIST*
D10*
X127916666Y-98454819D02*
X127916666Y-99169104D01*
X127916666Y-99169104D02*
X127869047Y-99311961D01*
X127869047Y-99311961D02*
X127773809Y-99407200D01*
X127773809Y-99407200D02*
X127630952Y-99454819D01*
X127630952Y-99454819D02*
X127535714Y-99454819D01*
X128345238Y-98550057D02*
X128392857Y-98502438D01*
X128392857Y-98502438D02*
X128488095Y-98454819D01*
X128488095Y-98454819D02*
X128726190Y-98454819D01*
X128726190Y-98454819D02*
X128821428Y-98502438D01*
X128821428Y-98502438D02*
X128869047Y-98550057D01*
X128869047Y-98550057D02*
X128916666Y-98645295D01*
X128916666Y-98645295D02*
X128916666Y-98740533D01*
X128916666Y-98740533D02*
X128869047Y-98883390D01*
X128869047Y-98883390D02*
X128297619Y-99454819D01*
X128297619Y-99454819D02*
X128916666Y-99454819D01*
X139834819Y-105833333D02*
X140549104Y-105833333D01*
X140549104Y-105833333D02*
X140691961Y-105880952D01*
X140691961Y-105880952D02*
X140787200Y-105976190D01*
X140787200Y-105976190D02*
X140834819Y-106119047D01*
X140834819Y-106119047D02*
X140834819Y-106214285D01*
X140834819Y-104833333D02*
X140834819Y-105404761D01*
X140834819Y-105119047D02*
X139834819Y-105119047D01*
X139834819Y-105119047D02*
X139977676Y-105214285D01*
X139977676Y-105214285D02*
X140072914Y-105309523D01*
X140072914Y-105309523D02*
X140120533Y-105404761D01*
X140283333Y-100829580D02*
X140235714Y-100877200D01*
X140235714Y-100877200D02*
X140092857Y-100924819D01*
X140092857Y-100924819D02*
X139997619Y-100924819D01*
X139997619Y-100924819D02*
X139854762Y-100877200D01*
X139854762Y-100877200D02*
X139759524Y-100781961D01*
X139759524Y-100781961D02*
X139711905Y-100686723D01*
X139711905Y-100686723D02*
X139664286Y-100496247D01*
X139664286Y-100496247D02*
X139664286Y-100353390D01*
X139664286Y-100353390D02*
X139711905Y-100162914D01*
X139711905Y-100162914D02*
X139759524Y-100067676D01*
X139759524Y-100067676D02*
X139854762Y-99972438D01*
X139854762Y-99972438D02*
X139997619Y-99924819D01*
X139997619Y-99924819D02*
X140092857Y-99924819D01*
X140092857Y-99924819D02*
X140235714Y-99972438D01*
X140235714Y-99972438D02*
X140283333Y-100020057D01*
X141235714Y-100924819D02*
X140664286Y-100924819D01*
X140950000Y-100924819D02*
X140950000Y-99924819D01*
X140950000Y-99924819D02*
X140854762Y-100067676D01*
X140854762Y-100067676D02*
X140759524Y-100162914D01*
X140759524Y-100162914D02*
X140664286Y-100210533D01*
X140083333Y-102799580D02*
X140035714Y-102847200D01*
X140035714Y-102847200D02*
X139892857Y-102894819D01*
X139892857Y-102894819D02*
X139797619Y-102894819D01*
X139797619Y-102894819D02*
X139654762Y-102847200D01*
X139654762Y-102847200D02*
X139559524Y-102751961D01*
X139559524Y-102751961D02*
X139511905Y-102656723D01*
X139511905Y-102656723D02*
X139464286Y-102466247D01*
X139464286Y-102466247D02*
X139464286Y-102323390D01*
X139464286Y-102323390D02*
X139511905Y-102132914D01*
X139511905Y-102132914D02*
X139559524Y-102037676D01*
X139559524Y-102037676D02*
X139654762Y-101942438D01*
X139654762Y-101942438D02*
X139797619Y-101894819D01*
X139797619Y-101894819D02*
X139892857Y-101894819D01*
X139892857Y-101894819D02*
X140035714Y-101942438D01*
X140035714Y-101942438D02*
X140083333Y-101990057D01*
X140464286Y-101990057D02*
X140511905Y-101942438D01*
X140511905Y-101942438D02*
X140607143Y-101894819D01*
X140607143Y-101894819D02*
X140845238Y-101894819D01*
X140845238Y-101894819D02*
X140940476Y-101942438D01*
X140940476Y-101942438D02*
X140988095Y-101990057D01*
X140988095Y-101990057D02*
X141035714Y-102085295D01*
X141035714Y-102085295D02*
X141035714Y-102180533D01*
X141035714Y-102180533D02*
X140988095Y-102323390D01*
X140988095Y-102323390D02*
X140416667Y-102894819D01*
X140416667Y-102894819D02*
X141035714Y-102894819D01*
D11*
X140308095Y-57587419D02*
X140308095Y-58396942D01*
X140308095Y-58396942D02*
X140355714Y-58492180D01*
X140355714Y-58492180D02*
X140403333Y-58539800D01*
X140403333Y-58539800D02*
X140498571Y-58587419D01*
X140498571Y-58587419D02*
X140689047Y-58587419D01*
X140689047Y-58587419D02*
X140784285Y-58539800D01*
X140784285Y-58539800D02*
X140831904Y-58492180D01*
X140831904Y-58492180D02*
X140879523Y-58396942D01*
X140879523Y-58396942D02*
X140879523Y-57587419D01*
X141879523Y-58587419D02*
X141308095Y-58587419D01*
X141593809Y-58587419D02*
X141593809Y-57587419D01*
X141593809Y-57587419D02*
X141498571Y-57730276D01*
X141498571Y-57730276D02*
X141403333Y-57825514D01*
X141403333Y-57825514D02*
X141308095Y-57873133D01*
%TO.C,J2*%
D12*
X126870000Y-95350000D02*
X126870000Y-87620000D01*
X129630000Y-87620000D02*
X126870000Y-87620000D01*
X129630000Y-95350000D02*
X126870000Y-95350000D01*
X129630000Y-95350000D02*
X129630000Y-87620000D01*
X129630000Y-96620000D02*
X129630000Y-98000000D01*
X129630000Y-98000000D02*
X128250000Y-98000000D01*
%TO.C,J1*%
X134080000Y-104120000D02*
X134080000Y-106880000D01*
X136730000Y-104120000D02*
X134080000Y-104120000D01*
X136730000Y-104120000D02*
X136730000Y-106880000D01*
X136730000Y-106880000D02*
X134080000Y-106880000D01*
X138000000Y-104120000D02*
X139380000Y-104120000D01*
X139380000Y-104120000D02*
X139380000Y-105500000D01*
%TO.C,C1*%
X143091248Y-99665000D02*
X143613752Y-99665000D01*
X143091248Y-101135000D02*
X143613752Y-101135000D01*
%TO.C,C2*%
X143101248Y-101805000D02*
X143623752Y-101805000D01*
X143101248Y-103275000D02*
X143623752Y-103275000D01*
%TD*%
M02*
